<?xml version="1.0" encoding="UTF-8"?>
<!DOCTYPE svg PUBLIC "-//W3C//DTD SVG 1.1//EN" "http://www.w3.org/Graphics/SVG/1.1/DTD/svg11.dtd">
<!-- Creator: CorelDRAW -->
<svg xmlns="http://www.w3.org/2000/svg" xml:space="preserve" width="297mm" height="210mm" version="1.1" style="shape-rendering:geometricPrecision; text-rendering:geometricPrecision; image-rendering:optimizeQuality; fill-rule:evenodd; clip-rule:evenodd"
viewBox="0 0 29700 21000"
 xmlns:xlink="http://www.w3.org/1999/xlink"
 xmlns:xodm="http://www.corel.com/coreldraw/odm/2003">
 <defs>
  <style type="text/css">
   <![CDATA[
    .str0 {stroke:#201E1E;stroke-width:20;stroke-miterlimit:22.9256}
    .fil0 {fill:#EB3136}
    .fil1 {fill:#201E1E;fill-rule:nonzero}
   ]]>
  </style>
 </defs>
 <g id="Camada_x0020_1">
  <metadata id="CorelCorpID_0Corel-Layer"/>
  <path class="fil0" d="M22788.02 11627.28l332.8 33.33c543.81,-236.91 1260.13,-367.39 1819.28,-613.79 1006.41,-443.63 2665.8,-1167.38 3020,-2179.75 1677.77,-4793.64 -17715.54,-5777.47 -22990.34,-3143.53 -410.11,204.76 -1337.45,713.38 -1543.77,1021.55l1555.4 -430.73c4839.87,-1212.73 14981.62,-1572.3 19500.23,1138.64 2388.51,1704.06 489.47,3670.93 -1693.6,4174.28z"/>
  <path class="fil1 str0" d="M5098.07 13692.12l701.64 215.49c-107.74,395.1 -287.34,688.3 -537.93,880.41 -250.58,191.28 -568,287.34 -953.07,287.34 -476.95,0 -868.7,-162.89 -1176.09,-488.65 -306.56,-325.76 -460.25,-770.97 -460.25,-1336.46 0,-597.25 154.53,-1061.67 462.76,-1392.44 308.21,-330.78 714.18,-496.17 1217.03,-496.17 439.36,0 796.03,130.31 1070,390.08 163.72,153.69 285.67,374.21 367.53,662.39l-716.68 170.4c-42.59,-185.43 -131.14,-332.45 -265.62,-440.2 -135.32,-107.75 -299.04,-161.21 -491.15,-161.21 -266.46,0 -482.81,95.22 -648.19,286.51 -166.23,190.44 -248.93,499.5 -248.93,927.17 0,452.73 81.86,776 244.74,968.11 163.73,192.95 375.89,289.01 637.34,289.01 192.95,0 359.17,-60.97 497.84,-183.77 138.65,-122.78 238.89,-314.9 299.03,-578.01zm1173.59 -449.4c0,-365.85 55.12,-673.24 164.55,-922.16 81.02,-182.93 192.95,-347.48 334.12,-492.82 141.17,-145.34 295.69,-253.1 463.58,-324.09 223.87,-94.4 481.98,-142.01 774.32,-142.01 529.58,0 952.23,164.56 1270.49,492.83 317.41,329.1 476.11,786.01 476.11,1371.56 0,580.52 -157.86,1034.92 -472.78,1362.35 -314.9,328.28 -736.72,491.99 -1263.79,491.99 -533.75,0 -958.92,-162.87 -1273.83,-489.47 -314.9,-325.78 -472.77,-775.16 -472.77,-1348.18zm746.76 -24.22c0,406.79 94.37,715.01 282.32,925.5 187.94,209.67 426.83,314.92 715.85,314.92 289.85,0 527.07,-104.41 713.33,-312.41 185.45,-208.83 278.16,-521.22 278.16,-938.03 0,-411.8 -90.21,-719.19 -271.47,-921.34 -180.42,-202.97 -420.15,-304.04 -720.02,-304.04 -299.04,0 -540.44,102.75 -723.36,307.39 -182.94,205.48 -274.81,514.54 -274.81,928.01zm3291.87 1796.72l0 -3588.42 1088.4 0 643.18 2447.4 635.65 -2447.4 1090.9 0 0 3588.42 -671.57 0 -2.51 -2824.96 -707.5 2824.96 -698.3 0 -704.16 -2824.96 -2.5 2824.96 -671.59 0zm4184.84 0l0 -3588.42 2656.24 0 0 606.42 -1929.54 0 0 796.87 1794.22 0 0 606.42 -1794.22 0 0 972.29 1999.7 0 0 606.42 -2726.4 0zm4149.75 0l0 -2982 -1062.5 0 0 -606.42 2846.68 0 0 606.42 -1057.48 0 0 2982 -726.7 0zm5115.35 0l-782.67 0 -309.89 -816.92 -1439.22 0 -298.2 816.92 -768.47 0 1393.27 -3588.42 767.63 0 1437.55 3588.42zm-1328.13 -1423.35l-498.66 -1328.11 -484.48 1328.11 983.14 0z"/>
  <path class="fil1 str0" d="M4459.47 10094.2l0 -422.29 1060.07 0 0 996.99c-102.83,102.95 -252.23,193.12 -448.22,271.65 -195.44,77.94 -393.7,116.91 -594.81,116.91 -255.07,0 -477.2,-54.67 -666.95,-164.61 -189.17,-109.94 -331.76,-267.58 -427.21,-471.75 -95.44,-204.17 -143.16,-426.95 -143.16,-667.17 0,-260.6 53.41,-492.1 159.64,-695.1 106.81,-202.42 262.46,-358.32 467.55,-466.51 156.79,-83.18 351.08,-124.48 584,-124.48 302.79,0 539.69,65.15 710.12,195.45 169.86,130.87 279.51,310.61 328.37,540.95l-490.85 94.24c-34.08,-122.74 -98.84,-219.88 -193.72,-291.42 -94.3,-70.97 -212.46,-106.45 -354.49,-106.45 -214.74,0 -385.73,69.8 -512.42,209.98 -126.7,140.19 -190.31,347.84 -190.31,622.98 0,297.23 64.18,520.01 192.59,668.35 128.95,148.32 297.11,222.78 505.59,222.78 102.83,0 206.23,-20.95 309.61,-62.25 103.97,-41.3 192.59,-91.91 267.02,-151.23l0 -317.02 -562.42 0zm1516.25 917.89l0 -2498.88 1037.92 0c260.74,0 450.48,22.69 568.66,67.48 118.72,44.79 213.03,124.48 284.03,239.07 71.03,115.17 106.81,246.04 106.81,393.79 0,187.88 -53.4,342.6 -160.76,464.75 -107.38,122.16 -267.59,198.94 -481.19,230.94 106.23,63.4 193.72,133.19 262.47,209.4 69.29,76.2 162.46,211.72 279.49,406.01l297.7 487.44 -589.12 0 -353.35 -545.61c-126.7,-193.7 -213.62,-315.85 -260.76,-366.45 -46.59,-50.03 -96.02,-84.93 -148.28,-103.55 -52.83,-18.62 -135.78,-27.92 -249.4,-27.92l-99.99 0 0 1043.53 -494.23 0zm494.23 -1441.4l364.73 0c236.32,0 383.46,-10.46 442.53,-30.82 58.53,-20.35 105.12,-55.84 138.07,-105.86 33.5,-50.03 49.97,-112.85 49.97,-187.88 0,-84.35 -22.15,-151.83 -65.88,-204.17 -43.75,-51.77 -105.68,-84.35 -185.2,-97.72 -40.34,-5.83 -160.22,-8.74 -359.62,-8.74l-384.6 0 0 635.19zm1967.32 -1057.48l494.25 0 0 1354.14c0,215.22 6.24,354.24 18.18,417.64 21.01,102.39 70.43,184.97 148.83,246.63 78.98,62.24 186.34,93.08 322.68,93.08 138.05,0 242.57,-29.1 313.03,-87.84 70.43,-58.75 112.47,-130.3 126.68,-215.8 14.21,-85.51 21.58,-226.86 21.58,-424.62l0 -1383.23 494.24 0 0 1314.01c0,300.14 -13.06,512.46 -39.75,636.35 -26.71,123.9 -75.56,228.59 -147.15,314.11 -71,85.49 -166.45,152.97 -285.74,203.58 -119.87,50.61 -275.53,76.2 -468.12,76.2 -232.36,0 -408.46,-27.34 -528.33,-82.6 -119.86,-55.26 -214.74,-126.81 -284.62,-215.22 -69.87,-88.41 -115.32,-180.32 -137.47,-277.45 -32.39,-143.09 -48.29,-354.83 -48.29,-634.61l0 -1334.37zm2461.56 2498.88l0 -2498.88 790.23 0c299.37,0 494.23,12.21 585.13,37.23 139.75,37.8 256.77,119.24 351.08,244.88 94.3,125.64 141.46,287.93 141.46,486.87 0,153.56 -27.27,282.11 -81.25,386.81 -54.52,104.7 -123.27,186.72 -206.78,246.63 -83.51,59.34 -168.74,98.88 -255.07,118.08 -117.6,23.84 -287.46,36.07 -510.16,36.07l-320.4 0 0 942.31 -494.24 0zm494.24 -2076.59l0 711.97 268.71 0c193.72,0 322.67,-13.37 388.01,-39.54 65.32,-26.17 116.46,-66.9 153.38,-123.32 36.93,-55.84 55.69,-120.41 55.69,-194.86 0,-91.32 -26.15,-166.35 -77.84,-225.7 -52.27,-59.32 -117.6,-96.55 -197.7,-111.68 -58.52,-11.05 -176.11,-16.87 -353.36,-16.87l-236.89 0zm1677.01 842.27c0,-254.77 37.5,-468.82 111.93,-642.16 55.11,-127.39 131.23,-241.98 227.25,-343.19 95.99,-101.21 201.09,-176.25 315.28,-225.69 152.24,-65.73 327.79,-98.89 526.62,-98.89 360.18,0 647.63,114.6 864.08,343.19 215.88,229.18 323.81,547.36 323.81,955.11 0,404.26 -107.36,720.69 -321.53,948.71 -214.18,228.6 -501.08,342.61 -859.55,342.61 -363,0 -652.16,-113.43 -866.33,-340.86 -214.17,-226.86 -321.56,-539.8 -321.56,-938.83zm507.9 -16.87c0,283.28 64.19,497.92 192.01,644.5 127.82,146 290.29,219.3 486.86,219.3 197.12,0 358.45,-72.72 485.15,-217.56 126.12,-145.41 189.18,-362.96 189.18,-653.21 0,-286.77 -61.36,-500.83 -184.63,-641.6 -122.72,-141.34 -285.77,-211.72 -489.7,-211.72 -203.38,0 -367.57,71.54 -491.98,214.05 -124.41,143.1 -186.89,358.31 -186.89,646.24z"/>
 </g>
</svg>
